# AST/ASF file generated using VICON BodyLanguage
# -----------------------------------------------
:version 1.10
:name VICON
:units
  mass 1.0
  length 0.45
  angle deg
:documentation
   .ast/.asf automatically generated from VICON data using
   VICON BodyBuilder and BodyLanguage model FoxedUp or BRILLIANT.MOD
:root
   order TX TY TZ RX RY RZ
   axis XYZ
   position 0 0 0  
   orientation 0 0 0 
:bonedata
  begin
     id 1 
     name lhipjoint
     direction 0.543289 -0.788407 0.288535 
     length 2.57127 
     axis 0 0 0  XYZ
  end
  begin
     id 2 
     name lfemur
     direction 0.34202 -0.939693 0  
     length 8.47298  
     axis 0 0 20  XYZ
    dof rx ry rz
    limits (-160.0 20.0)
           (-70.0 70.0)
           (-60.0 70.0)
  end
  begin
     id 3 
     name ltibia
     direction 0.34202 -0.939693 0   
     length 8.13367   
     axis 0 0 20   XYZ
    dof rx
    limits (-10.0 170.0)
  end
  begin
     id 4 
     name lfoot
     direction 0.114037 -0.313314 0.942778   
     length 2.67113   
     axis -90 7.62852e-016 20   XYZ
    dof rx rz
    limits (-45.0 90.0)
           (-70.0 20.0)
  end
  begin
     id 5 
     name ltoes
     direction 1.536e-011 -4.21847e-011 1   
     length 1.32217   
     axis -90 7.62852e-016 20   XYZ
    dof rx
    limits (-90.0 20.0)
  end
  begin
     id 6 
     name rhipjoint
     direction -0.571293 -0.770752 0.282074   
     length 2.63017  
     axis 0 0 0  XYZ 
  end
  begin
     id 7 
     name rfemur
     direction -0.34202 -0.939693 0   
     length 8.60885   
     axis 0 0 -20   XYZ
    dof rx ry rz
    limits (-160.0 20.0)
           (-70.0 70.0)
           (-70.0 60.0)
  end
  begin
     id 8 
     name rtibia
     direction -0.34202 -0.939693 0   
     length 8.07673   
     axis 0 0 -20   XYZ
    dof rx
    limits (-10.0 170.0)
 end
 begin
     id 9 
     name rfoot
     direction -0.121336 -0.333368 0.934956   
     length 2.81602  
     axis -90 -7.62852e-016 -20   XYZ
    dof rx rz
    limits (-45.0 90.0)
           (-20.0 70.0)
  end
  begin
     id 10 
     name rtoes
     direction -1.53491e-011 -4.21808e-011 1   
     length 1.38905   
     axis -90 -7.62852e-016 -20   XYZ
    dof rx
    limits (-90.0 20.0)
  end
  begin
     id 11 
     name lowerback
     direction 0.0136776 0.999869 -0.00861835   
     length 2.14087   
     axis 0 0 0   XYZ
    dof rx ry rz
    limits (-20.0 45.0)
           (-30.0 30.0)
           (-30.0 30.0)
  end
  begin
     id 12 
     name upperback
     direction -0.00789158 0.999804 0.0181308   
     length 2.14151   
     axis 0 0 0   XYZ
    dof rx ry rz
    limits (-20.0 45.0)
           (-30.0 30.0)
           (-30.0 30.0)
  end
  begin
     id 13 
     name thorax
     direction -0.0135231 0.999666 0.0220247   
     length 2.13644   
     axis 0 0 0   XYZ
    dof rx ry rz
    limits (-20.0 45.0)
           (-30.0 30.0)
           (-30.0 30.0)
  end
  begin
     id 14 
     name lowerneck
     direction -0.0392259 0.997317 0.0618018   
     length 1.65045   
     axis 0 0 0   XYZ
    dof rx ry rz
    limits (-20.0 45.0)
           (-30.0 30.0)
           (-30.0 30.0)
  end
  begin
     id 15 
     name upperneck
     direction 0.0765547 0.994276 -0.0745319   
     length 1.66045   
     axis 0 0 0   XYZ
    dof rx ry rz
    limits (-20.0 45.0)
           (-30.0 30.0)
           (-30.0 30.0)
  end
  begin
     id 16
     name head
     direction 0.0241564 0.999031 -0.036785  
     length 1.66594  
     axis 0 0 0   XYZ
    dof rx ry rz
    limits (-20.0 45.0)
           (-30.0 30.0)
           (-30.0 30.0)
  end
  begin
     id 17 
     name lclavicle
     direction 0.967398 0.249018 0.0461573  
     length 3.75176  
     axis 0 0 0   XYZ
    dof ry rz
    limits (-20.0 10.0)
           (0.0 20.0)
  end
  begin
     id 18 
     name lhumerus
     direction 1 -4.48963e-011 -3.05005e-027   
     length 5.93342   
     axis 180 -30 -90   XYZ
    dof rx ry rz
    limits (-60.0 90.0)
           (-90.0 90.0)
           (-90.0 90.0)
  end
  begin
     id 19
     name lradius
     direction 1 -4.48957e-011 1.07006e-026   
     length 3.94763   
     axis 180 -30 -90   XYZ
    dof rx
    limits (-10.0 170.0)
  end
  begin
     id 20
     name lwrist
     direction 1 -4.48978e-011 1.92422e-026   
     length 1.97382   
     axis -1.18182e-014 90 90   XYZ
    dof ry
    limits (-180.0 0.0)
 end
  begin
     id 21 
     name lhand
     direction 1 -4.48931e-011 3.84844e-026   
     length 0.560187   
     axis -2.45563e-014 90 90   XYZ
    dof rx rz
    limits (-90.0 90.0)
           (-45.0 45.0)
  end
  begin
     id 22 
     name lfingers
     direction 1 -4.48952e-011 7.69687e-026   
     length 0.451637   
     axis -4.91126e-014 90 90   XYZ
    dof rx
    limits (0.0 90.0)
  end
  begin
     id 23
     name lthumb
     direction 0.707107 -6.34901e-011 0.707107   
     length 0.648463   
     axis -90 45 2.85299e-015   XYZ
    dof rx rz
    limits (-45.0 45.0)
           (-45.0 45.0)
  end
  begin
     id 24 
     name rclavicle
     direction -0.965946 0.258716 0.00371831   
     length 3.63667  
     axis 0 0 0   XYZ 
    dof ry rz
    limits (-10.0 20.0)
           (-20.0 0.0)
  end
  begin
     id 25 
     name rhumerus
     direction -1 -4.48966e-011 -1.78361e-028  
     length 6.28647   
     axis 180 30 90   XYZ
    dof rx ry rz
    limits (-90.0 60.0)
           (-90.0 90.0)
           (-90.0 90.0)
  end
  begin
     id 26 
     name rradius
     direction -1 -4.48961e-011 1.05248e-026   
     length 3.81645   
     axis 180 30 90   XYZ
    dof rx
    limits (-10.0 170.0)
  end
  begin
     id 27 
     name rwrist
     direction -1 -4.48979e-011 1.92422e-026   
     length 1.90822   
     axis -1.18182e-014 -90 -90   XYZ
    dof ry
    limits (-180.0 0.0)
  end
  begin
     id 28
     name rhand
     direction -1 -4.48937e-011 3.84844e-026   
     length 0.646185   
     axis -2.45563e-014 -90 -90   XYZ
    dof rx rz
    limits (-90.0 90.0)
           (-45.0 45.0)
  end
  begin
     id 29
     name rfingers
     direction -1 -4.48953e-011 7.69687e-026   
     length 0.520971   
     axis -4.91126e-014 -90 -90   XYZ
    dof rx
    limits (0.0 90.0)
  end
  begin
     id 30
     name rthumb
     direction -0.707107 -6.3494e-011 0.707107   
     length 0.748013   
     axis -90 -45 -2.85299e-015   XYZ
    dof rx rz
    limits (-45.0 45.0)
           (-45.0 45.0)
  end
:hierarchy
  begin
    root lhipjoint rhipjoint lowerback
    lhipjoint lfemur
    lfemur ltibia
    ltibia lfoot
    lfoot ltoes
    rhipjoint rfemur
    rfemur rtibia
    rtibia rfoot
    rfoot rtoes
    lowerback upperback
    upperback thorax
    thorax lowerneck lclavicle rclavicle
    lowerneck upperneck
    upperneck head
    lclavicle lhumerus
    lhumerus lradius
    lradius lwrist
    lwrist lhand lthumb
    lhand lfingers
    rclavicle rhumerus
    rhumerus rradius
    rradius rwrist
    rwrist rhand rthumb
    rhand rfingers
  end

#!OML:ASF H:\HAZMAT1\Patient Classification 1\Patient 3\Session 1\dancer.ASF
:FULLY-SPECIFIED
:DEGREES
148
upperback -1.823390 -6.422990 -0.209204
rfoot 27.020300 -12.196700
lradius 29.076300
lthumb 12.747500 -309.148987
rradius 29.379101
lwrist -11.687800
rhand -15.355000 -19.005699
rhumerus -58.969501 -8.360410 -72.328400
lowerneck -5.287780 -0.420470 0.162622
lhand -13.358600 381.260010
ltibia 31.084400
head 3.634160 -0.248658 0.086797
rwrist 12.322600
lfingers 7.125020
rtoes 27.234699
lowerback 0.114694 -4.847650 3.286040
rfingers 7.125020
lclavicle 0.000000 0.000000
upperneck 8.335190 -0.580978 0.432351
rfemur -56.424900 -8.545130 36.225800
thorax -2.323860 -3.265310 -1.882690
rclavicle 0.000000 0.000000
rtibia 43.263901
lfoot -16.098200 9.993010
lhumerus -39.382599 3.820500 76.329102
rthumb 10.822400 671.293030
root 25.815901 19.134300 21.744699 -1068.219971 -260.739990 2.954910
ltoes 18.653200
lfemur -16.539900 -8.484240 -24.563499
149
upperback -2.763820 -7.025290 1.980510
rfoot 14.140000 -37.191601
lradius 32.904598
lthumb 10.122900 -304.786011
rradius 21.989500
lwrist -13.882000
rhand -13.010400 -20.287800
rhumerus -58.737701 -8.953810 -74.054802
lowerneck -5.374480 -0.755296 -0.877819
lhand -16.080099 385.477997
ltibia 33.116299
head 3.798720 -0.445767 -0.296062
rwrist 24.752501
lfingers 7.125020
rtoes 35.286201
lowerback -0.412571 -5.409190 7.230700
rfingers 7.125020
lclavicle 0.000000 -0.000000
upperneck 8.759190 -0.770227 -1.252130
rfemur -47.968102 11.346200 1.101520
thorax -3.258120 -3.631240 -1.751040
rclavicle 0.000000 -0.000000
rtibia 42.295502
lfoot -20.238300 11.067300
lhumerus -37.104500 -0.013101 71.182503
rthumb 13.083100 670.143005
root 25.645500 18.971701 21.883900 -1062.959961 -256.808014 5.280280
ltoes 21.828899
lfemur -21.451700 -4.589660 -25.165800
150
upperback -2.755590 -6.182100 1.942960
rfoot 17.685900 -31.636101
lradius 37.452599
lthumb 8.133570 -306.170990
rradius 20.250999
lwrist -11.713000
rhand -11.171500 -22.869801
rhumerus -56.817299 -9.446280 -74.114098
lowerneck -5.332510 -1.405360 -0.972218
lhand -18.141701 384.005005
ltibia 31.497601
head 3.943300 -0.860452 -0.604041
rwrist 29.529699
lfingers 7.125020
rtoes 22.706200
lowerback -2.133810 -4.664100 8.475490
rfingers 7.125020
lclavicle -0.000000 0.000000
upperneck 9.210150 -1.531550 -2.107270
rfemur -31.167299 22.183300 -10.874200
thorax -2.355120 -3.206860 -2.662790
rclavicle -0.000000 0.000000
rtibia 37.834900
lfoot -22.964300 13.107300
lhumerus -40.804401 7.652890 67.461800
rthumb 14.855300 667.682983
root 25.673700 18.977501 22.059401 -1064.180054 -255.964005 4.228190
ltoes 28.229200
lfemur -20.127899 -15.385500 -23.762199
151
upperback -2.749410 -5.720950 1.753070
rfoot 12.706000 -31.019300
lradius 29.111799
lthumb 11.113800 -307.944000
rradius 21.213301
lwrist -16.108101
rhand -12.052400 -22.775200
rhumerus -54.915001 -6.078970 -71.439301
lowerneck -3.544450 -2.658810 -1.473670
lhand -15.052800 382.369995
ltibia 33.649101
head 3.384370 -1.703070 -0.103124
rwrist 27.713301
lfingers 7.125020
rtoes 14.201400
lowerback -2.189040 -4.313110 7.737900
rfingers 7.125020
lclavicle 0.000000 0.000000
upperneck 8.545420 -3.341570 -0.694344
rfemur -25.648100 21.111799 -8.640640
thorax -2.207610 -2.961450 -2.476430
rclavicle 0.000000 0.000000
rtibia 36.516300
lfoot -21.829599 8.872290
lhumerus -43.840199 11.291700 69.516197
rthumb 14.006500 667.716980
root 25.856501 18.864300 22.046200 -1065.099976 -253.311996 4.936220
ltoes 25.406601
lfemur -19.020901 -17.156099 -23.653999
152
upperback -2.720640 -5.754090 0.309158
rfoot 7.935000 -24.795601
lradius 23.779600
lthumb 14.769800 -308.500000
rradius 24.148100
lwrist -19.770399
rhand -14.121600 -20.552900
rhumerus -50.624802 -3.851380 -76.318298
lowerneck -2.320580 -3.229570 -1.583720
lhand -11.260200 382.045990
ltibia 33.869598
head 3.120090 -2.097690 0.544523
rwrist 20.753700
lfingers 7.125020
rtoes 26.400999
lowerback -1.395050 -4.344570 4.989350
rfingers 7.125020
lclavicle -0.000000 -0.000000
upperneck 8.277130 -4.278620 1.290200
rfemur -38.248299 0.200274 5.212440
thorax -2.486500 -2.964480 -2.389900
rclavicle -0.000000 -0.000000
rtibia 58.012798
lfoot -21.570000 5.563140
lhumerus -45.490398 12.335500 68.244499
rthumb 12.011900 669.812012
root 25.854200 18.841200 21.848600 -1068.729980 -253.597000 2.590230
ltoes 15.412900
lfemur -17.425400 -8.494530 -25.364599
153
upperback -2.679030 -6.042680 -0.138718
rfoot 21.444799 0.182640
lradius 21.725800
lthumb 10.922900 -306.912994
rradius 24.412201
lwrist -20.531099
rhand -16.578899 -18.920000
rhumerus -46.438801 -1.162440 -83.610703
lowerneck -2.492690 -3.437980 -1.502520
lhand -15.250800 383.390991
ltibia 32.812302
head 3.135380 -2.242420 1.359150
rwrist 16.302099
lfingers 7.125020
rtoes 13.389200
lowerback -0.993862 -4.558220 2.623140
rfingers 7.125020
lclavicle -0.000000 -0.000000
upperneck 7.953830 -4.759360 3.893000
rfemur -56.217899 -27.662800 45.870800
thorax -2.485210 -3.064620 -1.514640
rclavicle -0.000000 -0.000000
rtibia 64.220001
lfoot -21.462900 8.570280
lhumerus -43.175999 13.737100 64.790199
rthumb 9.641670 671.320984
root 25.924299 18.969500 21.829599 -1062.469971 -252.938004 8.828080
ltoes 12.143100
lfemur -17.000799 -8.132510 -23.504000
154
upperback -2.593900 -5.608850 -0.377082
rfoot 16.438601 -9.337800
lradius 20.094601
lthumb 9.585750 -306.858002
rradius 19.822701
lwrist -22.083000
rhand -15.334500 -18.355000
rhumerus -44.297798 2.403360 -85.785301
lowerneck -2.782600 -4.838110 -3.163380
lhand -16.636801 383.380005
ltibia 31.051701
head 3.144900 -3.185090 2.061850
rwrist 24.199699
lfingers 7.125020
rtoes 17.601299
lowerback 0.730826 -4.237600 1.513840
rfingers 7.125020
lclavicle 0.000000 -0.000000
upperneck 7.222900 -6.644520 5.366340
rfemur -53.037800 -13.927600 37.216702
thorax -3.258940 -2.830900 -1.022800
rclavicle 0.000000 -0.000000
rtibia 60.818401
lfoot -19.555901 8.074620
lhumerus -42.478100 13.759300 63.374699
rthumb 10.842100 671.945007
root 25.980499 19.035801 22.033199 -1064.829956 -249.628006 6.729520
ltoes 13.735300
lfemur -16.019400 -11.164900 -22.694000
155
upperback -2.370740 -2.658580 0.774929
rfoot 8.058930 -36.384300
lradius 16.060499
lthumb 9.234450 -306.118988
rradius 11.117500
lwrist -28.233400
rhand -6.893230 -20.732000
rhumerus -36.682400 10.142900 -85.660599
lowerneck -1.783140 -8.828630 -6.054220
lhand -17.000900 384.104004
ltibia 31.668600
head 3.170900 -5.885310 2.273020
rwrist 47.238800
lfingers 7.125020
rtoes 30.290100
lowerback 1.241870 -2.110970 3.817890
rfingers 7.125020
lclavicle 0.000000 0.000000
upperneck 6.504590 -11.862300 5.118980
rfemur -40.641602 10.846600 8.274040
thorax -3.275820 -1.396450 -1.227410
rclavicle 0.000000 0.000000
rtibia 61.000401
lfoot -19.402800 8.728490
lhumerus -45.760101 13.438900 62.746899
rthumb 18.973499 670.172974
root 26.027399 18.991400 22.231001 -1065.599976 -244.104004 7.146430
ltoes 24.474501
lfemur -15.334800 -24.567400 -20.926001
156
upperback -2.259730 0.429312 0.307046
rfoot 25.762100 -23.815800
lradius 13.394800
lthumb 8.814910 -305.466003
rradius 11.815600
lwrist -33.833500
rhand -6.186500 -20.973400
rhumerus -5.640640 26.241100 -85.449303
lowerneck -0.966872 -10.835400 -7.303220
lhand -17.435699 384.738007
ltibia 36.970100
head 3.328760 -7.274590 3.101330
rwrist 41.440701
lfingers 7.125020
rtoes 33.066502
lowerback 1.169060 0.213722 4.116830
rfingers 7.125020
lclavicle -0.000000 0.000000
upperneck 5.904620 -14.687500 7.313470
rfemur -32.579601 1.323040 17.496599
thorax -2.955740 0.135071 -2.007450
rclavicle -0.000000 0.000000
rtibia 71.723396
lfoot -22.706200 8.842880
lhumerus -52.247799 14.066200 54.606602
rthumb 19.653099 670.000000
root 25.970800 18.835501 22.581699 -1062.170044 -244.509995 10.703900
ltoes 22.806700
lfemur -18.768200 -24.396099 -18.392900
157
upperback -2.410160 -0.117537 -1.390390
rfoot 17.447701 -20.490299
lradius 10.615100
lthumb 13.494100 -304.282013
rradius 26.871201
lwrist -43.002300
rhand -13.678000 -19.156500
rhumerus 67.279503 24.380400 -38.507702
lowerneck -1.594910 -7.841840 -4.618310
lhand -12.584100 386.174988
ltibia 41.672199
head 3.581860 -5.189720 2.843500
rwrist 12.302900
lfingers 7.125020
rtoes 27.567900
lowerback -0.698363 -0.108627 3.385690
rfingers 7.125020
lclavicle -0.000000 0.000000
upperneck 8.738240 -10.915800 8.398290
rfemur -35.670200 -12.045900 30.366501
thorax -2.096610 -0.125432 -3.329400
rclavicle -0.000000 0.000000
rtibia 75.461800
lfoot -25.797899 8.105150
lhumerus -59.283001 17.292400 49.580002
rthumb 12.439600 671.234009
root 26.478701 18.592300 22.864201 -1057.949951 -248.891006 14.819100
ltoes 17.219101
lfemur -19.613001 -14.110800 -17.120600
158
upperback -2.759220 -3.153560 -1.464870
rfoot -3.873640 -21.447500
lradius 10.915000
lthumb 15.916700 -306.131989
rradius 41.268501
lwrist -40.595699
rhand -18.241501 -18.014299
rhumerus 82.932404 -20.579100 -38.396099
lowerneck -1.581480 -4.005990 -1.576170
lhand -10.069600 384.502991
ltibia 41.035198
head 4.116430 -2.503650 2.674370
rwrist 2.355690
lfingers 7.125020
rtoes 26.970200
lowerback -1.519060 -2.374180 4.191650
rfingers 7.125020
lclavicle -0.000000 -0.000000
upperneck 11.893600 -6.009820 8.694900
rfemur -38.947300 -9.343790 30.075500
thorax -2.302990 -1.666770 -3.834350
rclavicle -0.000000 -0.000000
rtibia 65.440399
lfoot -29.182400 9.055610
lhumerus -62.282101 16.628799 55.644199
rthumb 8.037240 672.158997
root 27.809999 18.410101 23.007000 -1051.040039 -250.839996 24.115400
ltoes 17.250299
lfemur -12.091700 -11.571700 -14.392800
